<?xml version="1.0" encoding="utf-8"?>
<!-- Generator: Adobe Illustrator 27.9.0, SVG Export Plug-In . SVG Version: 6.00 Build 0)  -->
<svg version="1.1" id="Capa_1" xmlns="http://www.w3.org/2000/svg" xmlns:xlink="http://www.w3.org/1999/xlink" x="0px" y="0px"
	 viewBox="0 0 358.5 283.5" style="enable-background:new 0 0 358.5 283.5;" xml:space="preserve">
<style type="text/css">
	.st0{fill:#FFFFFF;}
</style>
<path class="st0" d="M165.3,45.3c0-4.5,0-9,0-13.4c0-7.9,5.4-14.2,13.3-15.6c7.8-1.4,15.7,3,17.8,10.7c1,3.5,0.7,7.3,0.9,10.9
	c0.2,2.6-0.6,5.7,0.6,7.6c1.1,1.7,4.3,2,6.6,2.9c16.3,6.6,28.5,17.4,34.6,34.3c3.4,9.3,0.9,17.2-6.8,21.6
	c-8.1,4.6-18.7,1.3-22.8-7.3c-2.7-5.7-5.7-11.1-10.9-15.1c-14.1-10.7-36.1-5.7-42.8,9.6c-4.1,9.3,0,20.9,9.6,25.9
	c6.4,3.4,13.4,4.4,20.3,6c11.9,2.7,23.8,5.1,34.3,11.7c14.7,9.3,22.7,22.8,23.9,39.9c1.7,24.5-15.6,47.8-38.9,55.5
	c-0.5,0.2-1.1,0.4-1.6,0.5c-4.2,1.4-6.3,4.3-6.3,8.6c0,3.2-0.1,6.5,0,9.7c0.1,8.5-7.1,15.8-15.4,15.9c-10.6,0.2-17-8.6-16.6-15.8
	c0.2-4.5,0-9.1,0.1-13.6c0.1-1.9-0.4-2.8-2.5-3.3c-19-4.4-32.8-15.4-41-33.1c-2.4-5.3-3.6-10.9-1.2-16.6c2.5-6,7-9.6,13.6-10.3
	c7.6-0.8,13.3,2.5,17.2,8.8c1.7,2.6,2.7,5.7,4.4,8.3c6.5,10.5,19.4,15.4,32.4,12.3c10.2-2.4,17.5-8.1,19.9-18.7
	c1.8-7.7-1.1-13.9-6.9-18.9c-3.8-3.3-8.4-4.9-13.2-6c-9.3-2.1-18.6-3.9-27.8-6.2c-13.9-3.5-25.8-10.4-33.6-23
	c-6.4-10.4-9-21.7-7.6-33.8C122.1,68.8,140.9,52.1,165.3,45.3L165.3,45.3z M143.6,65.5c-1.4,0.9-2.7,1.4-3.4,2.3
	c-2.9,3.8-8,9.7-10.8,13.5c-1.4,1.9-5.1-1.6-3.1-0.5c1.9,1.1,4.2-1.9,5.4-3.6c2.7-3.7,8-10.9,10.7-14.6c0.7-1,6.1,10.6,5.8,9.6
	C147.9,71.3,144.8,66.5,143.6,65.5L143.6,65.5z M149.5,90.7c1,4.3-16.1,9.2-18.4,9.2c-2-0.1,2.5-1.8,2.6,0.3
	c-6.9,5.2-6.5-3.4-2.5-4.3c1.9-0.1,3.1-1.1,3.1-3.2L149.5,90.7z M149.3,58c0.7-1,10-1.8,6.9,4.6c0.4-1.7-1.9-3.7-3.7-3.5
	c-1.9,0.2-2.9,1.2-2.9,3.3C149.7,64.7,146.6,57.4,149.3,58z"/>
<path class="st0" d="M280.4,143.8c-5.5-6.6-10.5-12.6-15.5-18.6c-3.3-3.9-6.7-7.8-10.1-11.8c-3.4-4.1-3.3-8.6,0.4-11.8
	c3.4-3,8.2-2.7,11.6,1.2c6,6.8,11.7,13.8,17.5,20.7c5.1,6.1,10.3,12.1,15.4,18.2c1.3,1.6,2.8,2.1,4.8,2.1c9.4,0,18.9-0.2,28.2,0.5
	c8.4,0.7,14.4,5.6,16.8,13.9c2.2,7.7,0.8,14.8-6,20c-0.1,0.1-0.2,0.3-0.5,0.6c1.9,0.9,3.7,1.8,5.5,2.9c6.5,3.9,10.1,9.6,10,17.2
	c0,4.3,0.5,8.6-1.6,12.7c-3.5,6.5-8.8,10-16.1,10.2c-7.2,0.2-14.4,0.1-21.6,0c-1.8,0-2.6,0.4-3.3,2.3c-4.6,12.1-13.3,19.4-26.1,21.7
	c-21,3.9-36.6-11-39.1-28.8c-2.6-18.5,12.1-35.8,28.6-38c15.7-2.1,29.6,6.2,35,17.8c1.2,2.5,2,5.1,3.1,7.9h24.5
	c0-2.4,0.2-4.6-0.1-6.7c-0.1-0.8-1.1-1.7-1.9-2c-6.2-2.1-10.9-6.1-14.9-11.1c-0.9-1.2-2.5-2.1-4-2.4c-4.6-1.1-7.3-4.5-7-9.5
	c0.2-3.7,3.6-6.4,8.3-6.6c2.5-0.1,5,0,7.5-0.1c2.1-0.1,3.1-1.3,3.2-3.4c0-2.2-1.3-2.9-3.2-3c-0.9-0.1-1.9-0.1-2.8-0.1
	c-21,0-42,0-63,0c-3.2,0-6.3-0.3-8.4-3.2c-1.9-2.6-2.2-5.4-0.9-8.4c1.5-3.3,4.3-4.5,7.6-4.6C267.9,143.7,273.7,143.8,280.4,143.8
	L280.4,143.8z M300.4,212.4c0.6-8.4-7.1-16-16.2-16.1c-8.9-0.1-16.5,7.8-16.5,17c0,8.7,7.5,16,16.4,15.9
	C294.2,229.2,300.7,221.2,300.4,212.4L300.4,212.4z"/>
<path class="st0" d="M44.5,222c-8.8,0-17.6,0-26.3,0c-10.6,0-17.9-7.2-18-17.8c-0.1-8.5,0.2-17-0.2-25.5c-0.3-6.5,1.5-11.6,6.5-15.9
	c5.3-4.7,10.3-9.8,15.5-14.6c3.4-3.1,7.6-4.3,12.2-4.3c4.2,0,8.5-0.1,12.8,0c2.2,0.1,3.8-0.6,5.3-2.2c8.1-8.5,16.3-16.9,24.5-25.3
	c4.6-4.7,9.2-9.4,13.9-13.9c2.9-2.8,6.9-3.3,10.4-1.5c2.5,1.3,4.4,4.5,3.7,7.4c-0.5,1.9-1.6,4-3,5.4C93,122.9,84,132,75.1,141.1
	c-0.7,0.7-1.6,1.2-2.5,1.8c0.2,0.3,0.3,0.7,0.5,1c0.8,0,1.7,0,2.5,0c8.7,0,17.4-0.2,26.1,0c2.4,0.1,5.1,0.9,7.1,2.3
	c2.8,2,3.3,5.2,2.1,8.5c-1.3,3.4-4.2,4.8-7.6,5.2c-1,0.1-2,0-3.1,0.1c-21.1,0-42.2,0.1-63.3,0c-2.9,0-5.1,0.7-7.1,2.8
	c-3.9,4-7.9,7.7-11.9,11.6c-0.7,0.7-1.5,1.7-1.5,2.5c-0.1,9.2-0.1,18.5-0.1,28c1,0.1,1.9,0.2,2.8,0.2c7.5,0,15,0,22.5,0.1
	c1.8,0,2.7-0.4,3.3-2.4c3.6-11.4,11-19.1,22.6-22.7c17.8-5.5,35.9,5.8,41.2,21.4c5.1,15.1-0.6,31.5-13.5,39.9
	c-9.4,6.2-19.9,6.9-30.4,2.9c-9.2-3.5-15.3-10.4-19.2-19.2C45.3,224.2,45,223.2,44.5,222L44.5,222z M60.8,212.5
	c-0.1,9.4,7,16.7,16.3,16.9c9,0.1,16.5-7.2,16.6-16.1c0.1-9.2-7.4-16.7-16.8-16.9C68.3,196.2,60.9,203.6,60.8,212.5z"/>
<path class="st0" d="M216.2,0c4.7,1.6,9.4,3,14.1,4.7c19.9,7,37.6,17.6,52.8,32.1c17.2,16.4,30.1,35.8,38.3,58.2
	c1.1,3.1,2.2,6.2,3.2,9.4c1.6,4.9-1.8,8.5-5.2,9.5c-3.9,1.1-8-1.1-9.2-5.4c-5.7-20.1-16.1-37.6-30.1-52.9
	c-16.6-18.1-36.4-31.6-59.9-39.5c-2.9-1-5.8-2-8.4-3.5c-2.7-1.5-3.4-4.2-2.4-7.2C210.6,2.2,212.9,0.4,216.2,0L216.2,0z"/>
<path class="st0" d="M35.5,105.1c1-3.2,2.5-7.9,4.2-12.5c6.9-18.3,17.4-34.4,30.6-48.7c18-19.7,39.9-33.3,65.3-41.5
	c1.9-0.6,3.8-1.4,5.8-1.9c4.1-0.9,7.8,1.3,8.9,5c1,3.5-0.9,6.8-5,8.4c-7.6,3-15.4,5.8-22.8,9.2c-15.8,7.3-29,18.1-40.9,30.7
	c-10.9,11.3-19.7,24.1-26,38.5c-2.4,5.6-4.2,11.4-6.3,17.1c-1.2,3.3-4.6,5.4-7.8,4.9C37.8,113.6,35.4,110.6,35.5,105.1L35.5,105.1z"
	/>
<path class="st0" d="M144.8,268.4c0,5.6-4.9,9.6-9.4,7.7c-10.1-4.4-20.1-9.2-29.9-14.3c-3.8-2-4.3-6.2-2.1-9.9
	c1.7-2.8,5.6-3.8,9.1-2.2c9.3,4.3,18.5,8.6,27.7,13C142.9,264,144.7,266.1,144.8,268.4L144.8,268.4z"/>
<path class="st0" d="M216.4,268.6c0.2-2.1,1.4-4.2,3.9-5.5c8.9-4.5,17.7-9,26.6-13.4c5.2-2.6,10.5,0.3,10.8,5.6
	c0.1,2.4-0.6,4.7-2.9,5.9c-9.5,5-19,10.1-28.8,14.7C221.3,278.1,216.3,274.4,216.4,268.6L216.4,268.6z"/>
</svg>
